<svg width="31" height="30" viewBox="0 0 31 30" fill="none" xmlns="http://www.w3.org/2000/svg">
<path fill-rule="evenodd" clip-rule="evenodd" d="M15.1797 30C23.464 30 30.1797 23.2843 30.1797 15C30.1797 6.71573 23.464 0 15.1797 0C6.89542 0 0.179688 6.71573 0.179688 15C0.179688 23.2843 6.89542 30 15.1797 30ZM18.1569 6.83389C18.226 6.90489 18.7246 7.66867 19.2648 8.53115C19.805 9.39362 20.2585 10.1114 20.2725 10.1262C20.2866 10.1411 20.3275 10.113 20.3634 10.0639C20.4768 9.90862 21.0649 9.58585 21.2343 9.5859C21.5214 9.58601 21.7118 9.76197 22.1155 10.4002C22.5481 11.0842 22.6094 11.2741 22.4791 11.5264C22.3777 11.723 21.9499 12.0534 21.7337 12.1021C21.6521 12.1205 21.5852 12.1561 21.5852 12.1812C21.5852 12.2358 22.0319 12.9695 22.9336 14.3961C23.6708 15.5624 23.7343 15.7393 23.532 16.0622C23.4116 16.2543 23.2358 16.3448 22.9829 16.3448C22.6831 16.3448 22.5408 16.2131 22.1265 15.5522C21.9057 15.2 21.1919 14.0723 20.5403 13.0463C19.8887 12.0202 18.9897 10.5968 18.5426 9.88299C18.0954 9.16922 17.5767 8.34189 17.3899 8.04449C17.1798 7.70988 17.0502 7.44503 17.05 7.34969C17.0495 7.13118 17.1871 6.86866 17.3604 6.75732C17.5721 6.62127 17.9889 6.66134 18.1569 6.83389ZM19.1594 12.6139C19.4499 12.6947 19.6153 12.8996 19.6101 13.1723C19.6059 13.3991 18.4758 22.5302 18.4215 22.7759C18.4056 22.8482 18.2997 23.0003 18.1864 23.1139L17.9802 23.3203L13.8906 23.3203C10.8514 23.3206 10.4723 23.3207 10.2935 23.1314C10.268 23.1045 10.2466 23.0736 10.2222 23.0384L10.2133 23.0257L10.2097 23.0206L10.1989 23.0052L10.1872 22.9892L10.183 22.9835L10.1771 22.9753C10.0879 22.8499 10.0637 22.6782 9.38093 17.8343L8.86693 14.1884C8.79404 13.6715 8.73438 13.1928 8.73438 13.1246C8.73438 12.953 8.97849 12.6786 9.18432 12.6189C9.42373 12.5496 18.9108 12.5448 19.1594 12.6139ZM16.8081 14.4653C16.851 14.3685 16.9655 14.2408 17.0624 14.1817C17.3428 14.0105 17.601 14.055 17.8151 14.3114C17.9644 14.4903 17.979 14.7006 17.8924 15.4255C17.8481 15.7973 17.6765 17.2573 17.5112 18.6699C17.3327 20.1963 17.1784 21.3099 17.1309 21.4145C17.0212 21.6564 16.7499 21.8191 16.5148 21.7838C16.3014 21.7517 16.0476 21.5304 15.9981 21.333C15.9498 21.1399 16.7111 14.6836 16.8081 14.4653ZM13.7642 14.2618C13.6735 14.3652 13.5825 14.539 13.5621 14.6479C13.5417 14.7569 13.5367 16.2965 13.551 18.0693L13.5526 18.2741C13.575 21.0784 13.5783 21.4827 13.7777 21.6433C13.8113 21.6703 13.8505 21.6904 13.8963 21.7139L13.9054 21.7186L13.9161 21.7242C14.209 21.8758 14.4851 21.7964 14.6768 21.5052C14.7771 21.3527 14.7811 21.2167 14.7815 17.9788C14.7818 14.3595 14.7816 14.3555 14.5055 14.1619C14.4364 14.1134 14.2784 14.0737 14.1545 14.0737C13.9648 14.0737 13.903 14.1035 13.7642 14.2618ZM10.6177 16.8044C10.3442 14.4925 10.3473 14.3947 10.7009 14.1729C11.0641 13.9449 11.5534 14.242 11.6199 14.7308C11.6375 14.8601 11.7488 15.7932 11.8672 16.8044C11.9856 17.8156 12.1308 19.0388 12.19 19.5226C12.3663 20.9641 12.38 21.2708 12.2773 21.4698C12.1877 21.6431 11.9479 21.8062 11.7825 21.8062C11.615 21.8062 11.3484 21.6423 11.2531 21.4807C11.1581 21.3196 11.1108 20.9716 10.6177 16.8044ZM13.0607 7.77921C13.9166 7.73317 14.8377 8.10134 15.3755 8.70449C15.8773 9.26726 16.1264 9.95389 16.122 10.7624C16.12 11.128 16.0125 11.841 15.9704 11.768C15.9663 11.7609 15.9375 11.6 15.9063 11.4105C15.6772 10.0151 14.9328 9.2341 13.7631 9.16178C13.4854 9.14464 13.095 9.16577 13.0335 9.20128C13.0198 9.2092 13.0244 9.41107 13.0438 9.64987C13.0637 9.89548 13.0628 10.0836 13.0418 10.083C13.0213 10.0823 12.9988 10.0719 12.9918 10.0597C12.9847 10.0475 12.8332 9.93659 12.655 9.81316C12.0278 9.37867 11.2835 8.85011 11.2539 8.81815C11.222 8.78383 11.3037 8.68254 12.2686 7.56081C12.559 7.22312 12.8035 6.94867 12.8118 6.95089C12.8201 6.95309 12.8396 7.13133 12.8552 7.3469C12.8707 7.56251 12.8897 7.74979 12.8974 7.76308C12.9051 7.77637 12.9786 7.78366 13.0607 7.77921Z" fill="#C42131"/>
</svg>
