<svg width="46" height="46" viewBox="0 0 46 46" fill="none" xmlns="http://www.w3.org/2000/svg">
<path fill-rule="evenodd" clip-rule="evenodd" d="M22.5208 45.4359C34.9472 45.4359 45.0208 35.3623 45.0208 22.9359C45.0208 10.5095 34.9472 0.435913 22.5208 0.435913C10.0944 0.435913 0.0207825 10.5095 0.0207825 22.9359C0.0207825 35.3623 10.0944 45.4359 22.5208 45.4359ZM17.227 13.0115C17.227 10.2708 19.4487 8.04906 22.1893 8.04906H22.851C25.5916 8.04906 27.8133 10.2708 27.8133 13.0115V15.8705C31.2877 17.1358 33.7687 20.4683 33.7687 24.3802V28.769C33.7687 33.7692 29.7152 37.8227 24.715 37.8227H20.3265C15.3263 37.8227 11.2728 33.7693 11.2728 28.769V24.3802C11.2728 20.4688 13.7533 17.1366 17.227 15.871V13.0115ZM28.4708 22.276C28.4708 21.8454 28.1966 21.4788 27.8133 21.3414V18.8503C29.7464 19.9357 31.0526 22.0054 31.0526 24.3802V28.769C31.0526 32.2692 28.2152 35.1066 24.715 35.1066H20.3265C16.8264 35.1066 13.9889 32.2692 13.9889 28.769V24.3802C13.9889 22.0059 15.2945 19.9366 17.227 18.851V21.3389C16.8399 21.4743 16.5623 21.8427 16.5623 22.276C16.5623 22.8241 17.0066 23.2685 17.5548 23.2685C18.1029 23.2685 18.5472 22.8241 18.5472 22.276C18.5472 21.845 18.2725 21.4782 17.8886 21.3411V18.5285C18.6391 18.2155 19.4626 18.0426 20.3265 18.0426H24.715C25.5784 18.0426 26.4015 18.2153 27.1516 18.5279V21.3385C26.764 21.4736 26.4859 21.8423 26.4859 22.276C26.4859 22.8241 26.9302 23.2684 27.4784 23.2684C28.0265 23.2684 28.4708 22.8241 28.4708 22.276ZM27.1516 13.3423V15.6582C26.3764 15.442 25.5592 15.3265 24.715 15.3265H20.3265C19.4819 15.3265 18.6643 15.4422 17.8886 15.6585V13.3423C17.8886 10.7843 19.9622 8.71071 22.5201 8.71071C25.078 8.71071 27.1516 10.7843 27.1516 13.3423Z" fill="#C42131"/>
</svg>
