<svg width="31" height="30" viewBox="0 0 31 30" fill="none" xmlns="http://www.w3.org/2000/svg">
<path fill-rule="evenodd" clip-rule="evenodd" d="M15.1116 30C23.3958 30 30.1116 23.2843 30.1116 15C30.1116 6.71573 23.3958 0 15.1116 0C6.8273 0 0.111572 6.71573 0.111572 15C0.111572 23.2843 6.8273 30 15.1116 30ZM15.6589 7.392H14.5721C10.6704 7.392 7.50748 10.5549 7.50748 14.4566V22.608H15.6589C19.5606 22.608 22.7235 19.4451 22.7235 15.5434V14.4566C22.7235 10.5549 19.5606 7.392 15.6589 7.392ZM14.5721 5.76172C9.77002 5.76172 5.8772 9.65454 5.8772 14.4566V22.608V24.2383H7.50748H15.6589C20.4609 24.2383 24.3538 20.3455 24.3538 15.5434V14.4566C24.3538 9.65454 20.4609 5.76172 15.6589 5.76172H14.5721ZM11.8544 14.7292C11.8544 15.1794 11.4895 15.5443 11.0393 15.5443C10.5891 15.5443 10.2242 15.1794 10.2242 14.7292C10.2242 14.279 10.5891 13.914 11.0393 13.914C11.4895 13.914 11.8544 14.279 11.8544 14.7292ZM14.8423 15.5443C15.2925 15.5443 15.6574 15.1794 15.6574 14.7292C15.6574 14.279 15.2925 13.914 14.8423 13.914C14.3921 13.914 14.0272 14.279 14.0272 14.7292C14.0272 15.1794 14.3921 15.5443 14.8423 15.5443ZM19.4651 14.7292C19.4651 15.1794 19.1002 15.5443 18.65 15.5443C18.1998 15.5443 17.8348 15.1794 17.8348 14.7292C17.8348 14.279 18.1998 13.914 18.65 13.914C19.1002 13.914 19.4651 14.279 19.4651 14.7292Z" fill="#C42131"/>
</svg>
