<svg width="31" height="31" viewBox="0 0 31 31" fill="none" xmlns="http://www.w3.org/2000/svg">
<path fill-rule="evenodd" clip-rule="evenodd" d="M15.3203 30.5C23.6046 30.5 30.3203 23.7843 30.3203 15.5C30.3203 7.21573 23.6046 0.5 15.3203 0.5C7.03604 0.5 0.320312 7.21573 0.320312 15.5C0.320312 23.7843 7.03604 30.5 15.3203 30.5ZM22.4023 8.73809H21.2561C20.8942 7.92353 20.0781 7.35547 19.1294 7.35547C18.1806 7.35547 17.3645 7.92353 17.0026 8.73809H8.23758C7.62312 8.73809 7.125 9.23621 7.125 9.85068C7.125 10.4651 7.62312 10.9633 8.23758 10.9633H17.1881C17.6044 11.5924 18.3184 12.0074 19.1294 12.0074C19.9403 12.0074 20.6543 11.5924 21.0706 10.9633H22.4023C23.0168 10.9633 23.5149 10.4651 23.5149 9.85068C23.5149 9.23621 23.0168 8.73809 22.4023 8.73809ZM22.4023 14.5566C23.0168 14.5566 23.5149 15.0548 23.5149 15.6692C23.5149 16.2837 23.0168 16.7818 22.4023 16.7818H13.4517C13.0354 17.411 12.3214 17.826 11.5105 17.826C10.6996 17.826 9.98559 17.411 9.5693 16.7818H8.23758C7.62312 16.7818 7.125 16.2837 7.125 15.6692C7.125 15.0548 7.62312 14.5566 8.23758 14.5566H9.38379C9.74564 13.7421 10.5617 13.174 11.5105 13.174C12.4593 13.174 13.2754 13.7421 13.6372 14.5566H22.4023ZM21.2561 20.3752H22.4023C23.0168 20.3752 23.5149 20.8733 23.5149 21.4878C23.5149 22.1022 23.0168 22.6004 22.4023 22.6004H21.0706C20.6543 23.2295 19.9403 23.6445 19.1294 23.6445C18.3184 23.6445 17.6044 23.2295 17.1881 22.6004H8.23758C7.62312 22.6004 7.125 22.1022 7.125 21.4878C7.125 20.8733 7.62312 20.3752 8.23758 20.3752H17.0026C17.3645 19.5606 18.1806 18.9926 19.1294 18.9926C20.0781 18.9926 20.8942 19.5606 21.2561 20.3752Z" fill="#C4222D"/>
</svg>
