<svg width="30" height="29" viewBox="0 0 30 29" fill="none" xmlns="http://www.w3.org/2000/svg">
<path d="M16.4796 4.46308C15.6011 5.39581 14.1185 5.39635 13.2392 4.46426L13.1862 4.40803L13.1862 4.40801C12.2117 3.37493 11.7605 3.02037 10.9755 2.60001L10.9754 2.59999C10.4544 2.32098 9.60933 2.0165 9.10139 1.9181L9.10133 1.91809C8.95018 1.8888 8.56003 1.85203 8.12491 1.83055C7.91825 1.82035 7.72127 1.81457 7.56281 1.81409C7.43531 1.8137 7.36565 1.81712 7.34023 1.81837C7.32881 1.81894 7.32632 1.81906 7.33153 1.8182C6.27088 1.99332 5.68957 2.18429 5.09769 2.50516L16.4796 4.46308ZM16.4796 4.46308C17.5684 3.30723 18.0858 2.91319 18.9627 2.48335M16.4796 4.46308L18.5225 1.58543L18.9627 2.48335M1.32636 9.66264L1.32636 9.66265C1.39422 11.3349 1.90633 12.8537 2.82589 14.1503C3.00535 14.4033 3.4135 14.8736 5.39741 17.0752L4.66208 17.7378L5.39741 17.0752C6.29819 18.0749 6.98787 18.8422 9.28797 21.4035C10.1568 22.3709 11.6576 24.0418 12.6232 25.1167L12.6232 25.1167C13.1042 25.6521 13.5584 26.1528 13.9024 26.5276C14.0747 26.7153 14.2176 26.8696 14.3217 26.9803C14.4116 27.0759 14.4478 27.112 14.4503 27.1157C14.6262 27.2508 14.8472 27.2825 15.0068 27.2333L15.0068 27.2333C15.0716 27.2133 15.1129 27.2009 15.1377 27.1938C15.155 27.1798 15.1814 27.1575 15.2189 27.1233C15.2974 27.0515 15.4072 26.9436 15.5658 26.7787C16.1346 26.1872 17.1803 25.0213 19.3097 22.6473C19.5948 22.3294 19.8993 21.9899 20.2248 21.6272C22.0296 19.6155 24.1627 17.2404 24.9649 16.3492C26.691 14.4315 26.8206 14.2653 27.1616 13.7211C27.6867 12.8828 28.0575 11.9317 28.2775 10.8211C28.4211 10.0961 28.4244 8.6402 28.279 7.86082C27.3552 2.91177 22.9102 0.548338 18.9627 2.48335M1.32636 9.66264L18.9627 2.48335M1.32636 9.66264C1.20119 6.57946 2.72194 3.79344 5.09762 2.5052L1.32636 9.66264ZM14.4311 27.1004C14.4318 27.101 14.4325 27.1016 14.4332 27.1021C14.4325 27.1016 14.4318 27.101 14.4311 27.1004ZM0.327223 9.7032L0.327252 9.7032L0.327223 9.7032Z" stroke="#C42131" stroke-width="2"/>
</svg>
