<svg width="45" height="46" viewBox="0 0 45 46" fill="none" xmlns="http://www.w3.org/2000/svg">
<path fill-rule="evenodd" clip-rule="evenodd" d="M22.5 45.436C34.9264 45.436 45 35.3624 45 22.936C45 10.5096 34.9264 0.436035 22.5 0.436035C10.0736 0.436035 0 10.5096 0 22.936C0 35.3624 10.0736 45.436 22.5 45.436ZM12.2681 11.5331C12.9883 11.1427 13.6855 10.9252 14.8158 10.7386C15.123 10.6879 16.4822 10.7549 16.9386 10.8434C17.5535 10.9625 18.4931 11.3033 19.0946 11.6255C20.0063 12.1137 20.5416 12.5485 21.5607 13.6289L22.5066 14.6316L23.3988 13.6844C24.5357 12.4775 25.1476 11.9935 26.1696 11.4925C30.8094 9.21806 35.8849 12.0971 36.9091 17.5844C37.0767 18.4827 37.075 20.067 36.9055 20.9225C36.6643 22.1399 36.2523 23.2072 35.6561 24.159C35.26 24.7913 35.0658 25.0247 33.3552 26.9252C32.5536 27.8158 30.421 30.1904 28.6162 32.202C23.8056 37.5638 23.504 37.922 23.126 38.0447C23.0726 38.062 23.0177 38.0746 22.9484 38.096C22.4439 38.2514 21.8648 38.1292 21.4403 37.7775C21.3532 37.7054 20.4919 36.7669 19.5263 35.692C18.5607 34.6171 17.0599 32.9461 16.191 31.9787C13.8909 29.4174 13.2017 28.6506 12.3016 27.6517C10.3468 25.4824 9.88048 24.9505 9.65727 24.6358C8.62137 23.1751 8.04964 21.468 7.97426 19.6102C7.83544 16.191 9.51918 13.0237 12.2681 11.5331Z" fill="#C42131"/>
</svg>
